#!OML:ASF G:\JayActor3\Patient Classification 1\Patient 1\Session 5\male.ASF
:FULLY-SPECIFIED
:DEGREES
288
root 11.877 16.4237 -5.77086 467.758 -80.6446 -469.199
lowerback -0.564679 1.0235 10.8965
upperback 2.37031 1.06709 0.810716
thorax 2.99878 0.752639 -5.2253
lowerneck -6.80444 -1.161 1.25091
upperneck -1.53077 -1.74007 3.34845
head 0.676778 -0.863119 0.776694
rclavicle -1.41634e-015 -6.36111e-015
rhumerus -23.146 2.07165 -89.0374
rradius 31.8644
rwrist 1.56062
rhand -18.6106 -6.07246
rfingers 7.12502
rthumb 7.68097 -35.913
lclavicle -1.41634e-015 -6.36111e-015
lhumerus -39.176 16.3214 76.1697
lradius 22.8583
lwrist 8.69105
lhand -16.5604 14.7909
lfingers 7.12502
lthumb 9.65954 44.5495
rfemur 14.3816 -1.06457 35.4013
rtibia 14.6518
rfoot -21.0779 -7.17423
rtoes -0.653577
lfemur -31.0999 5.61533 -14.3436
ltibia 21.361
lfoot -12.6218 5.14662
ltoes -17.0051
289
root 11.705 16.4129 -5.77002 468.421 -80.5609 -469.797
lowerback -0.560403 1.06377 10.9345
upperback 2.35285 1.12242 0.795204
thorax 2.98898 0.780262 -5.26094
lowerneck -6.75497 -1.16418 1.27131
upperneck -1.6458 -1.7433 3.3953
head 0.632828 -0.867545 0.788045
rclavicle -1.27471e-014 -1.98785e-014
rhumerus -23.0975 2.12465 -89.1388
rradius 31.9574
rwrist 1.57086
rhand -18.7154 -6.06643
rfingers 7.12502
rthumb 7.57987 -35.9106
lclavicle -1.27471e-014 -1.98785e-014
lhumerus -39.0598 16.6253 75.9353
lradius 22.3965
lwrist 8.28482
lhand -16.6058 14.8011
lfingers 7.12502
lthumb 9.6157 44.5617
rfemur 15.3491 -1.05461 35.365
rtibia 13.8979
rfoot -20.5906 -7.05942
rtoes -1.40023
lfemur -31.2812 5.82177 -14.4281
ltibia 20.7082
lfoot -12.6129 4.57678
ltoes -16.977
290
root 11.5314 16.4013 -5.76854 469.058 -80.4938 -470.38
lowerback -0.550942 1.09939 10.9563
upperback 2.33693 1.17286 0.7724
thorax 2.97675 0.805205 -5.29546
lowerneck -6.71009 -1.16817 1.29129
upperneck -1.75743 -1.74776 3.44624
head 0.590865 -0.87253 0.80069
rclavicle -1.4561e-014 -3.85642e-014
rhumerus -23.0758 2.12927 -89.243
rradius 32.0138
rwrist 1.61556
rhand -18.7863 -6.06152
rfingers 7.12502
rthumb 7.51146 -35.9082
lclavicle -1.4561e-014 -3.85642e-014
lhumerus -38.9486 16.9467 75.6868
lradius 21.9345
lwrist 7.84266
lhand -16.6416 14.8116
lfingers 7.12502
lthumb 9.58116 44.5738
rfemur 16.2529 -1.04246 35.3061
rtibia 13.2919
rfoot -20.1107 -6.93125
rtoes -2.18789
lfemur -31.4154 6.04662 -14.5299
ltibia 20.2627
lfoot -12.6155 4.13149
ltoes -16.8988
291
root 11.3555 16.3888 -5.76633 469.666 -80.4396 -470.941
lowerback -0.546182 1.13102 10.9669
upperback 2.32244 1.21786 0.743501
thorax 2.96759 0.827557 -5.33027
lowerneck -6.66567 -1.17132 1.30753
upperneck -1.86853 -1.75086 3.50403
head 0.549338 -0.876828 0.816126
rclavicle -4.22417e-015 1.39149e-014
rhumerus -23.0792 2.09176 -89.3493
rradius 32.0272
rwrist 1.68922
rhand -18.8467 -6.04136
rfingers 7.12502
rthumb 7.45316 -35.8901
lclavicle -4.22417e-015 1.39149e-014
lhumerus -38.8469 17.245 75.4475
lradius 21.4963
lwrist 7.40751
lhand -16.6769 14.8366
lfingers 7.12502
lthumb 9.54708 44.6003
rfemur 17.0812 -1.03303 35.2256
rtibia 12.8536
rfoot -19.6412 -6.78307
rtoes -3.02123
lfemur -31.4913 6.23587 -14.6215
ltibia 20.0204
lfoot -12.5995 3.86024
ltoes -16.7966
292
root 11.1769 16.3755 -5.76333 470.233 -80.3811 -471.465
lowerback -0.558992 1.16122 10.9847
upperback 2.31184 1.25819 0.713978
thorax 2.97201 0.848592 -5.36959
lowerneck -6.6297 -1.17425 1.32029
upperneck -1.97197 -1.75377 3.56463
head 0.511757 -0.880832 0.832986
rclavicle -9.93923e-017 -1.78906e-014
rhumerus -23.1093 2.01276 -89.4554
rradius 32.0002
rwrist 1.79539
rhand -18.8845 -5.99409
rfingers 7.12502
rthumb 7.41661 -35.8441
lclavicle -9.93923e-017 -1.78906e-014
lhumerus -38.7491 17.5486 75.2071
lradius 21.0713
lwrist 6.95207
lhand -16.7021 14.88
lfingers 7.12502
lthumb 9.52282 44.6448
rfemur 17.8247 -1.01999 35.1421
rtibia 12.5939
rfoot -19.1862 -6.61637
rtoes -3.91959
lfemur -31.5003 6.32407 -14.6527
ltibia 19.9727
lfoot -12.5686 3.79493
ltoes -16.6414
293
root 10.9952 16.3617 -5.75899 470.747 -80.3152 -471.934
lowerback -0.60023 1.19108 11.0192
upperback 2.30287 1.29384 0.684922
thorax 2.99408 0.868623 -5.41733
lowerneck -6.59569 -1.17792 1.33092
upperneck -2.06962 -1.75755 3.62449
head 0.476383 -0.88518 0.849954
rclavicle 5.96354e-015 3.97569e-015
rhumerus -23.1649 1.90938 -89.5599
rradius 31.9322
rwrist 1.90647
rhand -18.9325 -5.9147
rfingers 7.12502
rthumb 7.37027 -35.7663
lclavicle 5.96354e-015 3.97569e-015
lhumerus -38.6615 17.8324 74.981
lradius 20.6752
lwrist 6.51201
lhand -16.7189 14.9297
lfingers 7.12502
lthumb 9.50662 44.6953
rfemur 18.4884 -1.01374 35.0514
rtibia 12.4944
rfoot -18.7314 -6.41746
rtoes -4.86841
lfemur -31.4515 6.26369 -14.5999
ltibia 20.1278
lfoot -12.5014 3.92373
ltoes -16.4336
294
root 10.8098 16.3476 -5.75313 471.194 -80.2317 -472.331
lowerback -0.6818 1.22061 11.0816
upperback 2.29655 1.32263 0.660476
thorax 3.04153 0.887168 -5.47523
lowerneck -6.56018 -1.17959 1.34165
upperneck -2.16418 -1.75852 3.67861
head 0.441658 -0.888152 0.865207
rclavicle -4.77083e-015 2.38542e-015
rhumerus -23.2481 1.7928 -89.6627
rradius 31.8306
rwrist 2.01005
rhand -19.0104 -5.82486
rfingers 7.12502
rthumb 7.29507 -35.6791
lclavicle -4.77083e-015 2.38542e-015
lhumerus -38.5831 18.1228 74.7586
lradius 20.3008
lwrist 6.07322
lhand -16.7248 14.98
lfingers 7.12502
lthumb 9.50091 44.7459
rfemur 19.086 -1.02328 34.9595
rtibia 12.5228
rfoot -18.2533 -6.18458
rtoes -5.88713
lfemur -31.3664 6.06679 -14.4602
ltibia 20.5
lfoot -12.412 4.21076
ltoes -16.2184
295
root 10.6205 16.3333 -5.74613 471.558 -80.1117 -472.64
lowerback -0.806366 1.25324 11.1864
upperback 2.29169 1.34802 0.646936
thorax 3.11564 0.906166 -5.54456
lowerneck -6.52639 -1.1812 1.35454
upperneck -2.24736 -1.75964 3.72471
head 0.410663 -0.891009 0.8776
rclavicle -5.14355e-015 1.86858e-014
rhumerus -23.3623 1.6622 -89.7609
rradius 31.7056
rwrist 2.10229
rhand -19.0662 -5.76046
rfingers 7.12502
rthumb 7.24123 -35.6166
lclavicle -5.14355e-015 1.86858e-014
lhumerus -38.5177 18.3912 74.556
lradius 19.9626
lwrist 5.66574
lhand -16.7128 15.026
lfingers 7.12502
lthumb 9.51244 44.7913
rfemur 19.6383 -1.04161 34.8884
rtibia 12.6353
rfoot -17.7272 -5.91806
rtoes -6.89409
lfemur -31.2767 5.82109 -14.2532
ltibia 21.1045
lfoot -12.273 4.58215
ltoes -16.0514
296
root 10.4271 16.3195 -5.73834 471.852 -79.9489 -472.873
lowerback -0.970648 1.29111 11.336
upperback 2.28344 1.37318 0.645888
thorax 3.2101 0.926784 -5.62493
lowerneck -6.48949 -1.1815 1.37063
upperneck -2.31557 -1.75925 3.76493
head 0.383693 -0.892845 0.887667
rclavicle -3.90115e-015 -2.74323e-014
rhumerus -23.5162 1.51335 -89.8519
rradius 31.5605
rwrist 2.19349
rhand -19.1194 -5.71326
rfingers 7.12502
rthumb 7.18993 -35.5711
lclavicle -3.90115e-015 -2.74323e-014
lhumerus -38.4701 18.6626 74.353
lradius 19.6461
lwrist 5.26598
lhand -16.6941 15.0617
lfingers 7.12502
lthumb 9.53052 44.8261
rfemur 20.1636 -1.06634 34.8446
rtibia 12.7937
rfoot -17.127 -5.62464
rtoes -7.86577
lfemur -31.2104 5.63223 -14.0215
ltibia 21.9384
lfoot -12.0349 4.98885
ltoes -15.9856
